# xmcd
#
# Track frame offsets:
#	150
#	19448
#	35715
#	62248
#	85040
#	101685
#	127045
#	152475
#	171873
#	192400
#
# Disc length: 2905 seconds
#
# Revision: 1
# Processed by: cddbd v1.4PL0 Copyright (c) Steve Scherf et al.
# Submitted via: EasyCDDAExtractor 5.0.7
#
DISCID=870b570a
DTITLE=Various Artist - Giong nuoc mat
DYEAR=1900
DGENRE=
TTITLE0=Vy Lan - Tinh den roi di
TTITLE1=Elvis Phuong - Thanh pho mua bay
TTITLE2=Ngoc Lan - Uot mi
TTITLE3=Tuan Anh - Hanh phuc ang thang
TTITLE4=Kieu Nga - Anh da quen mua thu
TTITLE5=Tuan Vu - Con nho hay khong
TTITLE6=Thai Hien - Giong nuoc mat
TTITLE7=Kieu Nga - Xin con goi ten nhau
TTITLE8=Huong Lan - Dem dong
TTITLE9=Nhu Mai - Diem xua
EXTD=
EXTT0=
EXTT1=
EXTT2=
EXTT3=
EXTT4=
EXTT5=
EXTT6=
EXTT7=
EXTT8=
EXTT9=
PLAYORDER=
